PathFileType	4	(X/Y/Z)	H:\MAC\Pilotos\Biomecanica2_gait_2020\Trimmed_walk3.trc
DataRate	CameraRate	NumFrames	NumMarkers	Units	OrigDataRate	OrigDataStartFrame	OrigNumFrames
150.00	150.00	       8	28	mm	150.00	1	       251
Frame#	Time	R.ASIS			L.ASIS			R.PSIS			L.PSIS			L.Iliac.Crest			R.Iliac.Crest			R.GTR			R.Knee			R.HF			R.TT			R.Ankle			R.Heel			R.MT1			R.MT5			L.GTR			L.Knee			L.HF			L.TT			L.Ankle			L.Heel			L.MT1			L.MT5			R.Knee.Medial			R.Ankle.Medial			R.MT2			L.Knee.Medial			L.Ankle.Medial			L.MT2			V_Mid_ASIS			V_Mid_PSIS			V_Pelvis_Origin			V_R.Hip_JC			V_R.Knee_JC_Static			V_R.TT			V_R.Ankle_JC_Static			V_L.Hip_JC			V_Mid_Hip			V_R.MT2_Static			V_R.Knee.Medial			V_R.Ankle.Medial			V_R.TT			V_L.Knee_JC_Static			V_L.TT			V_L.Ankle_JC_Static			V_L.MT2_Static			V_R.Knee_JC			V_R.Ankle_JC			V_L.Knee_JC			V_L.Ankle_JC			V_R.TT_KJC_Static			V_L.TT_KJC_Static			V_R.TT_KJC			V_L.TT_KJC			V_R.MT2			V_L.MT2			
		X1	Y1	Z1	X2	Y2	Z2	X3	Y3	Z3	X4	Y4	Z4	X5	Y5	Z5	X6	Y6	Z6	X7	Y7	Z7	X8	Y8	Z8	X9	Y9	Z9	X10	Y10	Z10	X11	Y11	Z11	X12	Y12	Z12	X13	Y13	Z13	X14	Y14	Z14	X15	Y15	Z15	X16	Y16	Z16	X17	Y17	Z17	X18	Y18	Z18	X19	Y19	Z19	X20	Y20	Z20	X21	Y21	Z21	X22	Y22	Z22	X23	Y23	Z23	X24	Y24	Z24	X25	Y25	Z25	X26	Y26	Z26	X27	Y27	Z27	X28	Y28	Z28	X29	Y29	Z29	X30	Y30	Z30	X31	Y31	Z31	X32	Y32	Z32	X33	Y33	Z33	X34	Y34	Z34	X35	Y35	Z35	X36	Y36	Z36	X37	Y37	Z37	X38	Y38	Z38	X39	Y39	Z39	X40	Y40	Z40	X41	Y41	Z41	X42	Y42	Z42	X43	Y43	Z43	X44	Y44	Z44	X45	Y45	Z45	X46	Y46	Z46	X47	Y47	Z47	X48	Y48	Z48	X49	Y49	Z49	X50	Y50	Z50	X51	Y51	Z51	X52	Y52	Z52	X53	Y53	Z53	X54	Y54	Z54	X55	Y55	Z55	

1	0.000	-8.19860	949.37903	-175.04913	-19.24440	944.76471	-430.63840	-212.08357	937.99286	-246.88475	-219.63629	949.84778	-327.81235	-100.59728	996.20074	-466.08127	-85.05074	1003.73633	-124.11514	-70.77695	846.62842	-104.12046	14.92170	477.81186	-141.93822	39.23930	424.49844	-141.52045	103.64351	433.39984	-184.68230	162.33801	74.67524	-171.90858	136.13687	25.89361	-227.66246	319.27576	118.20839	-211.97490	289.31256	79.83353	-140.25076	-118.41671	856.65533	-484.03201	-226.74036	482.85999	-433.50247	-239.39893	427.51801	-434.43073	-182.10736	398.16949	-385.51614	-362.93091	94.67240	-373.00098	-414.77924	69.83274	-320.50723	-211.22893	36.80663	-309.56665	-246.86481	29.55047	-390.08975	40.06211	468.89978	-281.24609	182.16405	113.44845	-253.72562	315.33911	108.79559	-178.06865	-204.17517	478.25406	-299.05179	-332.81699	107.50264	-289.76102	-212.41949	33.13489	-345.54956																																																																																		
2	0.007	-0.14366	948.56531	-174.54349	-11.43566	944.01379	-430.21194	-204.13226	936.77032	-246.12318	-211.77965	948.75446	-326.97467	-92.95202	995.32062	-465.49677	-77.01637	1002.69446	-123.44330	-62.35973	845.69312	-103.78097	23.78129	477.11890	-141.93443	47.89591	423.74432	-141.74185	111.93357	432.89532	-185.56750	171.36090	74.03277	-173.12492	145.03752	25.29611	-228.86391	327.92856	118.19906	-214.13879	298.65219	79.52013	-142.45821	-110.89345	855.84351	-483.72699	-220.21098	482.81235	-433.46524	-233.33801	427.62363	-434.54703	-176.36540	397.47046	-385.50220	-361.73071	96.50149	-373.46558	-414.08041	72.43286	-321.10016	-211.86450	36.14721	-311.00781	-246.73438	29.56602	-390.11996	47.32418	468.91617	-281.44162	190.55330	113.11233	-255.12442	324.32162	108.48429	-179.91266	-197.46059	478.28082	-298.93048	-331.63824	108.95502	-290.19696	-212.28607	32.96838	-345.60120																																																																																		
3	0.013	7.88617	947.99158	-173.94766	-3.56925	943.27881	-429.71552	-196.21359	935.58936	-245.35484	-203.83186	947.62500	-326.19757	-85.47301	994.66730	-464.97519	-69.04833	1001.81940	-122.73340	-53.85998	844.91345	-103.41801	33.05701	476.60056	-142.01831	56.59222	422.91821	-141.90158	120.35585	432.20795	-186.02592	178.98767	72.86990	-174.53099	152.20927	24.32906	-230.26288	335.31320	117.02618	-216.17070	306.40005	78.08707	-144.60519	-102.98443	855.25366	-483.12335	-213.44539	482.67615	-433.44724	-227.02844	427.63199	-434.68802	-170.35776	396.78668	-385.59860	-360.38916	98.39646	-374.01544	-413.29718	75.21472	-321.74762	-211.74680	36.08275	-311.09808	-246.55849	29.58456	-390.16589	55.36868	468.93375	-281.47995	197.88347	112.14398	-256.49130	331.81845	107.23692	-181.88138	-190.28549	477.64053	-299.34818	-330.35098	110.54459	-290.71106	-212.15199	32.83391	-345.64404																																																																																		
4	0.020	16.02191	947.67310	-173.33168	4.55765	942.63135	-429.15134	-188.17368	934.50739	-244.62248	-195.80356	946.52692	-325.49496	-77.26792	993.82983	-464.20868	-61.19309	1001.04669	-122.04008	-45.51149	844.26556	-102.36531	42.50781	476.24017	-142.16934	65.34214	422.10995	-142.10704	128.94212	431.29504	-186.49352	185.11259	71.33960	-175.94179	157.70724	23.07036	-231.53592	341.36646	114.84643	-218.50046	312.69492	75.78066	-146.73073	-94.97601	854.54572	-482.55286	-206.19240	482.55841	-433.30594	-220.57680	427.61194	-434.85837	-164.14207	396.02884	-385.76450	-358.88150	100.40633	-374.71640	-412.38272	78.17327	-322.50616	-211.63338	36.03255	-311.19315	-246.38226	29.61016	-390.21115	64.08501	468.74033	-281.45755	203.78683	110.59940	-257.88388	338.13495	105.03617	-183.93755	-182.76370	476.74911	-299.24130	-328.98822	112.18743	-291.28729	-212.01605	32.70078	-345.70221																																																																																		
5	0.027	24.21675	947.46472	-172.65808	12.91748	942.09106	-428.45963	-180.05728	933.50549	-243.94875	-187.64641	945.40906	-324.76010	-69.37206	993.36108	-463.55063	-53.22166	1000.29144	-121.32269	-36.53944	843.92065	-102.54201	52.22547	475.97488	-142.37190	74.28938	421.40491	-142.29924	137.47519	430.27115	-186.90358	189.97598	69.49299	-177.29762	161.82126	21.42061	-232.72188	346.25970	111.67115	-220.79730	317.71857	72.82632	-148.87463	-87.09600	854.00330	-481.93527	-199.02411	482.38345	-433.30176	-213.74728	427.56503	-435.06772	-157.59715	395.12433	-385.96640	-357.25784	102.62674	-375.53946	-411.31833	81.34605	-323.32843	-211.48094	36.01626	-311.31113	-246.40244	29.38379	-390.05862	73.46204	468.28223	-281.41916	208.56303	108.57180	-259.24902	343.44928	101.36076	-185.10623	-175.07210	476.07874	-299.41287	-327.50009	113.98580	-291.92184	-211.85011	32.57323	-345.78372																																																																																		
6	0.033	32.60158	947.37390	-171.97113	21.06276	941.55560	-427.87848	-171.73332	932.62823	-243.27623	-179.39384	944.39496	-324.04977	-61.10447	992.85809	-462.80106	-45.18671	999.82867	-120.65644	-27.72195	843.61810	-102.04378	62.08935	475.76059	-142.60997	83.34309	420.73483	-142.60954	146.07819	429.13541	-187.39299	193.68756	67.25497	-178.58694	164.50171	19.56795	-233.66840	349.99194	107.91164	-223.17500	321.55136	69.34740	-151.03494	-79.06906	853.38367	-481.33069	-191.37106	482.13052	-433.29453	-206.65749	427.52542	-435.33127	-150.88110	394.26083	-386.23026	-355.27893	105.12690	-376.63580	-410.09625	84.73733	-324.19156	-211.29828	36.01747	-311.45337	-246.13722	29.42686	-390.00058	83.17835	467.95087	-281.35251	211.97446	106.14577	-260.52292	347.34253	97.42720	-187.52052	-167.24593	475.88156	-299.46265	-325.82089	115.93243	-292.64468	-211.64928	32.42566	-345.86942																																																																																		
7	0.040	41.19448	947.23950	-171.34085	29.26075	941.03558	-427.25809	-163.17809	931.83521	-242.64052	-170.95584	943.50354	-323.35837	-52.34057	992.22437	-461.91135	-37.06033	999.32379	-119.82978	-18.53735	843.34393	-102.20860	71.96630	475.48462	-142.79024	92.50809	420.16986	-142.83858	154.13120	427.72324	-187.79875	196.38889	65.06141	-179.74391	165.24161	18.26812	-234.13927	352.66809	103.48135	-225.57158	324.28177	65.35794	-153.20132	-70.89254	852.71875	-480.60126	-183.33371	481.78833	-433.56470	-199.27180	427.44705	-435.68616	-143.74615	393.29544	-386.65033	-353.20584	107.78020	-378.09674	-408.68668	88.36899	-325.04996	-211.07410	36.04255	-311.58908	-245.78629	29.55922	-390.01736	93.31225	467.57965	-281.20905	214.73161	103.23946	-261.97842	349.84430	93.33577	-191.03589	-158.94109	474.92188	-299.81821	-323.91306	118.00690	-293.45007	-211.18153	31.91466	-346.02911																																																																																		
8	0.047	49.87089	947.17981	-170.58685	37.78492	940.57129	-426.60260	-154.58792	931.17889	-241.94461	-162.37749	942.76251	-322.64767	-43.97750	991.94623	-461.19406	-28.75625	998.75275	-118.97637	-9.70302	843.16559	-100.95744	81.84150	475.22794	-142.89160	101.65728	419.57672	-143.13893	162.84599	426.62238	-188.77286	198.27544	62.98732	-180.86551	165.04395	17.08263	-235.04248	354.42737	98.44080	-228.11374	326.11148	60.76841	-155.49899	-62.59375	852.10583	-479.87613	-175.11476	481.55554	-433.66821	-191.61388	427.38800	-436.07004	-136.47778	392.32172	-387.09827	-351.56137	109.99446	-378.54819	-407.05862	92.22781	-325.85913	-210.77231	36.10329	-311.72025	-245.42271	29.71751	-390.07541	103.56624	467.51166	-280.95981	216.46468	99.99902	-263.42621	351.66415	88.47919	-193.48390	-150.40977	474.22110	-300.21176	-321.78287	120.24875	-294.23914	-210.92709	31.80536	-346.10727																																																																																		
